<?xml version="1.0" encoding="utf-8"?>
<!-- Generator: Adobe Illustrator 16.0.0, SVG Export Plug-In . SVG Version: 6.00 Build 0)  -->
<!DOCTYPE svg PUBLIC "-//W3C//DTD SVG 1.1//EN" "http://www.w3.org/Graphics/SVG/1.1/DTD/svg11.dtd">
<svg version="1.1" id="Layer_1" xmlns="http://www.w3.org/2000/svg" xmlns:xlink="http://www.w3.org/1999/xlink" x="0px" y="0px"
	 width="34.019px" height="74.703px" viewBox="0 0 34.019 74.703" enable-background="new 0 0 34.019 74.703" xml:space="preserve">
 <style type="text/css"><![CDATA[
    g {
        fill: #fff;
    }
]]></style>
<g>
	<polygon points="23.074,55 25,53.409 25,48.252 23.021,46 23,46 10.979,46 9,48.28 9,53.396 10.943,55 	"/>
	<path d="M17,37.013c3.285,0,6-2.763,6-5.396v-22.9L21.9,5.81L24.94,3H29V0h-7.008L11,10.976v20.642
		C11,34.25,13.714,37.013,17,37.013z"/>
	<path d="M5,63h24v-3.494l5.019-4.997l-0.009-7.137L30,43.145v-7.146l4-4.043v-6.103l-4-4.077v-6.064L26.622,12H25v19.617
		c0,3.871-3.713,7.396-8,7.396c-4.288,0-8-3.525-8-7.396V12H7.422L4,15.712v6.143l-4,3.979v6.178l4,3.987v7.137l-4,4.496
		l0.002,6.897L5,59.506V63z M7,47.464L10.138,44h13.741L27,47.433v6.828L23.879,57H10.138L7,54.248V47.464z"/>
	<polygon points="9.252,67 8,67 8,71 13.275,71 17,74.703 20.704,71 26,71 26,67 24.706,67 	"/>
</g>
</svg>
